<?xml version="1.0" encoding="utf-8"?>
<!-- Generator: Adobe Illustrator 19.0.1, SVG Export Plug-In . SVG Version: 6.00 Build 0)  -->
<svg version="1.1" id="Layer_1" xmlns="http://www.w3.org/2000/svg" xmlns:xlink="http://www.w3.org/1999/xlink" x="0px" y="0px"
	 viewBox="0 0 21.9895744 31.9997005" style="enable-background:new 0 0 21.9895744 31.9997005;" xml:space="preserve">
<style type="text/css">
	.st0{fill:#FFFFFF;}
</style>
<g>
	<g>
		<path class="st0" d="M21.9855194,1.8003553c0-0.5375977,0-1.800354-10.991394-1.800354
			c-10.9914551,0-10.9907227,1.2627563-10.9907227,1.7935791c-0.010376,1.0087892-0.1964111,24.7236328,4.4926758,29.3234253
			c0.5975952,0.5843506,1.2655029,0.8826904,1.9858398,0.8826904h9.0250854c0.7246704,0,1.3972168-0.2991333,1.9979858-0.8887939
			C22.2037811,26.4965839,21.9963837,2.8015761,21.9855194,1.8003553z M16.5864105,30.2282734
			c-0.3540039,0.3464355-0.7073975,0.5162354-1.0794067,0.5162354H6.4819183c-0.3676147,0-0.717041-0.1675415-1.067749-0.5109253
			c-2.1762698-2.1347046-3.2531741-9.7020874-3.7480469-16.8167114c0.6343993,0.4230347,1.2442015,0.6401978,1.8649901,0.6708374
			c0.8526614,0.0390015,1.6994631-0.2891235,2.5650637-1.0042114c0.8475952,0.7044067,1.666748,1.0493164,2.4902954,1.0493164
			c0.0090332,0,0.0181274-0.0015259,0.0272217-0.0015259c0.8312988-0.0061035,1.6633911-0.3640747,2.5302734-1.0914307
			c0.855957,0.7113037,1.7106323,1.0447388,2.5154419,1.0469971c0.8300781-0.0075684,1.6607666-0.3655396,2.5270996-1.0905762
			c0.8441772,0.7189331,1.5852051,1.0455322,2.3499756,1.0455322h0.0247192
			c0.5819702-0.0061035,1.1535645-0.2026978,1.7705688-0.6172485
			C19.8408051,20.5307636,18.7670746,28.0874653,16.5864105,30.2282734z M20.4410248,11.6953135
			c-0.7694092,0.7372437-1.3722534,1.0859985-1.8915405,1.0905762h-0.0109863c-0.5231934,0-1.1245728-0.347229-1.8927002-1.0922241
			l-0.4567871-0.4442749l-0.456604,0.4442749c-0.7822876,0.7587891-1.4645386,1.132019-2.0847168,1.1373901
			c-0.0050659,0-0.0095825,0.0007324-0.0140991,0.0007324c-0.6116943,0-1.2770996-0.3587036-2.03302-1.0928955l-0.456604-0.4437256
			l-0.456665,0.4437256c-1.543335,1.4998169-2.6246338,1.510498-4.1323853,0.0458984l-0.4567261-0.444397l-0.456665,0.444397
			c-0.7557983,0.7349854-1.4192505,1.0844727-2.0477297,1.048584c-0.5994873-0.0275879-1.2667847-0.4024048-2.0361938-1.138916
			C1.3353728,7.87256,1.2753142,4.3244033,1.2933806,2.0145888c2.0026245-1.0325317,17.3995361-1.0325317,19.4025879,0
			C20.7161102,4.3214126,20.6592865,7.8709731,20.4410248,11.6953135z M13.0967255,16.4854755
			c-0.3567505,0-0.6459351,0.2807007-0.6459351,0.6279297c0,0.3464966,0.2891846,0.6279907,0.6459351,0.6279907
			s0.6459961-0.2814941,0.6459961-0.6279907C13.7427216,16.7661762,13.453476,16.4854755,13.0967255,16.4854755z
			 M14.3887787,19.6220722c-0.3568726,0-0.6460571,0.2814941-0.6460571,0.6279907
			c0,0.347229,0.2891846,0.6271973,0.6460571,0.6271973c0.3566895,0,0.6459351-0.2799683,0.6459351-0.6271973
			C15.0347137,19.9035664,14.7454681,19.6220722,14.3887787,19.6220722z M16.3267059,22.7594624
			c-0.3568115,0-0.6459961,0.2814941-0.6459961,0.6280518c0,0.3464966,0.2891846,0.6271973,0.6459961,0.6271973
			c0.3566895,0,0.645874-0.2807007,0.645874-0.6271973C16.97258,23.0409565,16.6833954,22.7594624,16.3267059,22.7594624z
			 M11.1587982,20.8772602c-0.3566895,0-0.645874,0.2806396-0.645874,0.6279297c0,0.3464966,0.2891846,0.6271973,0.645874,0.6271973
			c0.3568115,0,0.6459961-0.2807007,0.6459961-0.6271973C11.8047943,21.1578999,11.5156097,20.8772602,11.1587982,20.8772602z
			 M16.3267059,16.4854755c0-0.3457031-0.2891846-0.6271982-0.6459961-0.6271982
			c-0.3566895,0-0.6459961,0.2814951-0.6459961,0.6271982c0,0.3464966,0.2893066,0.6279297,0.6459961,0.6279297
			C16.0375214,17.1134052,16.3267059,16.8319721,16.3267059,16.4854755z M5.9910126,24.7006855
			c-0.3566895,0-0.6459351,0.2807007-0.6459351,0.6271973s0.2892456,0.6279297,0.6459351,0.6279297
			c0.3568115,0,0.6459961-0.2814331,0.6459961-0.6279297S6.3478241,24.7006855,5.9910126,24.7006855z M7.2830048,28.4652729
			c-0.3568115,0-0.6459961,0.2814941-0.6459961,0.6279297c0,0.3457031,0.2891846,0.6271973,0.6459961,0.6271973
			c0.3566895,0,0.645874-0.2814941,0.645874-0.6271973C7.9288788,28.746767,7.6396942,28.4652729,7.2830048,28.4652729z"/>
	</g>
</g>
</svg>
