<?xml version="1.0" encoding="utf-8"?>
<!-- Generator: Adobe Illustrator 19.0.1, SVG Export Plug-In . SVG Version: 6.00 Build 0)  -->
<svg version="1.1" id="Layer_1" xmlns="http://www.w3.org/2000/svg" xmlns:xlink="http://www.w3.org/1999/xlink" x="0px" y="0px"
	 viewBox="0 0 30.0000229 33.9996986" style="enable-background:new 0 0 30.0000229 33.9996986;" xml:space="preserve">
<style type="text/css">
	.st0{fill:#FFFFFF;}
</style>
<g>
	<g>
		<path class="st0" d="M25.225708,17.0369892c-0.4245605,0-0.8391724,0.0534668-1.2406616,0.15979v-0.1964722
			c0-0.9523315-0.7926025-1.7263193-1.7669067-1.7263193H1.7669067C0.7927246,15.2739878,0,16.0479755,0,17.0003071v8.2235718
			c0,2.3939819,1.1456299,4.722229,3.0075073,6.1494141v0.900877c0,0.9515381,0.7927246,1.7255249,1.7669067,1.7255249h14.4360962
			c0.9744263,0,1.7670288-0.7739868,1.7670288-1.7255249v-0.900877c1.3153687-1.0081177,2.272583-2.4658813,2.7214966-4.0805054
			c0.4892578,0.1621094,1.0004883,0.2454834,1.5266724,0.2454834c2.6326294,0,4.774292-2.0925903,4.774292-4.663269v-1.1755371
			C30,19.1281147,27.8583374,17.0369892,25.225708,17.0369892z M19.8497314,32.2741699
			c0,0.3442383-0.2866821,0.6242065-0.6392212,0.6242065H4.7744141c-0.352417,0-0.6389771-0.2799683-0.6389771-0.6242065v-0.6240826
			h15.7142944V32.2741699z M22.8572388,25.2238789c0,2.0842285-1.0039063,4.1071777-2.6306152,5.3248291H3.7584229
			c-1.6268311-1.2176514-2.6304932-3.2406006-2.6304932-5.3248291v-8.2235718c0-0.3442383,0.2866211-0.624939,0.6389771-0.624939
			h20.4512329c0.352356,0,0.6390991,0.2807007,0.6390991,0.624939V25.2238789z M23.9850464,21.6994648
			c0-0.668457,0.5565796-1.2107544,1.2406616-1.2107544c0.684021,0,1.2405396,0.5422974,1.2405396,1.2107544v1.1755371
			c0,0.6677856-0.5565186,1.2107544-1.2405396,1.2107544c-0.684082,0-1.2406616-0.5429688-1.2406616-1.2107544V21.6994648z
			 M28.8721924,22.8750019c0,1.9641724-1.6357422,3.5611572-3.6464844,3.5611572
			c-0.4522705,0-0.8897095-0.0795898-1.3045044-0.2355957c0.041626-0.3219604,0.0638428-0.6485596,0.0638428-0.9766846v-0.3800659
			c0.361084,0.2171631,0.7859497,0.3433838,1.2406616,0.3433838c1.3059082,0,2.3682861-1.036438,2.3682861-2.3121948v-1.1755371
			c0-1.2749634-1.0623779-2.3128662-2.3682861-2.3128662c-0.4547119,0-0.8795776,0.1261597-1.2406616,0.3441772v-1.3806152
			c0.395752-0.140686,0.8114624-0.211853,1.2406616-0.211853c2.0107422,0,3.6464844,1.5977783,3.6464844,3.5611572V22.8750019z
			 M11.6116333,10.9158945c-0.6176147,0.5521851-1.3859863,1.2406006-1.3859863,2.5592041
			c0,0.3035889,0.2523804,0.5506592,0.5639038,0.5506592c0.3114624,0,0.5638428-0.2470703,0.5638428-0.5506592
			c0-0.8345337,0.4502563-1.2368164,1.0200195-1.7468872c0.6174927-0.5530396,1.3859863-1.2406006,1.3859863-2.5592041
			c0-1.3201289-0.7683716-2.0070186-1.3858643-2.561523c-0.5698853-0.5100708-1.0201416-0.9124146-1.0201416-1.7476807
			c0-0.8359375,0.4502563-1.2375488,1.0201416-1.7492065c0.6174927-0.5521851,1.3858643-1.2405397,1.3858643-2.5599365
			c0-0.3043823-0.2523804-0.5506592-0.5639038-0.5506592c-0.3114624,0-0.5639038,0.2462769-0.5639038,0.5506592
			c0,0.835205-0.4500732,1.2383423-1.0201416,1.7484131c-0.6174316,0.5530396-1.3858032,1.2406006-1.3858032,2.56073
			c0,1.3201904,0.7683716,2.006958,1.3858032,2.5614624c0.5699463,0.5101929,1.0201416,0.9117427,1.0201416,1.7477412
			C12.6315918,10.0033579,12.1815186,10.4057016,11.6116333,10.9158945z M15.2207031,10.9158945
			c-0.6174927,0.5521851-1.3861084,1.2406006-1.3861084,2.5592041c0,0.3035889,0.2524414,0.5506592,0.5639038,0.5506592
			c0.3115234,0,0.5639038-0.2470703,0.5639038-0.5506592c0-0.8345337,0.4501953-1.2368164,1.0200195-1.7468872
			c0.6174927-0.5530396,1.3861084-1.2406006,1.3861084-2.5592041c0-1.3201289-0.7684937-2.0070186-1.3859253-2.561523
			c-0.5700073-0.5100708-1.0202026-0.9124146-1.0202026-1.7476807c0-0.3035889-0.2523804-0.5505981-0.5639038-0.5505981
			c-0.3114624,0-0.5639038,0.2470093-0.5639038,0.5505981c0,1.3201904,0.7684326,2.006958,1.3859253,2.5614624
			c0.5698853,0.5101929,1.0200806,0.9117427,1.0200806,1.7477412
			C16.2406006,10.0033579,15.7905273,10.4057016,15.2207031,10.9158945z M8.0025024,10.9158945
			c-0.6174927,0.5521851-1.3858643,1.2406006-1.3858643,2.5592041c0,0.3035889,0.2522583,0.5506592,0.5637817,0.5506592
			s0.5640259-0.2470703,0.5640259-0.5506592c0-0.8345337,0.4500732-1.2368164,1.0199585-1.7468872
			c0.6174927-0.5530396,1.3860474-1.2406006,1.3860474-2.5592041c0-1.3201289-0.7684326-2.0070186-1.3859253-2.561523
			C8.194519,6.0974135,7.7444458,5.6950698,7.7444458,4.8598037c0-0.3035889-0.2525024-0.5505981-0.5640259-0.5505981
			S6.6166382,4.5562148,6.6166382,4.8598037c0,1.3201904,0.7683716,2.006958,1.3858032,2.5614624
			C8.5724487,7.931459,9.022644,8.3330088,9.022644,9.1690073C9.022644,10.0033579,8.5725098,10.4057016,8.0025024,10.9158945z"/>
	</g>
</g>
</svg>
