<?xml version="1.0" encoding="utf-8"?>
<!-- Generator: Adobe Illustrator 19.0.1, SVG Export Plug-In . SVG Version: 6.00 Build 0)  -->
<svg version="1.1" id="Layer_1" xmlns="http://www.w3.org/2000/svg" xmlns:xlink="http://www.w3.org/1999/xlink" x="0px" y="0px"
	 viewBox="0 0 33.0000992 29.9882259" style="enable-background:new 0 0 33.0000992 29.9882259;" xml:space="preserve">
<style type="text/css">
	.st0{fill:#FFFFFF;}
</style>
<path class="st0" d="M29.1186008,5.9353251c1.3659992,0,2.477499,1.1059999,2.477499,2.4650998
	c0,1.3599005-1.1114998,2.4659004-2.477499,2.4659004c-1.3660011,0-2.4773006-1.1059999-2.4773006-2.4659004
	C26.6413002,7.0413251,27.7525997,5.9353251,29.1186008,5.9353251z M29.1186008,7.6409249
	c-0.4214001,0-0.7642002,0.3404002-0.7642002,0.7595c0,0.4198999,0.3428993,0.7602997,0.7642002,0.7602997
	c0.4214001,0,0.7642994-0.3403997,0.7642994-0.7602997C29.8829002,7.9813251,29.5400009,7.6409249,29.1186008,7.6409249z
	 M33.0000992,18.2891254v1.0226002c0,1.3323994-1.0886993,2.4146996-2.4267998,2.4146996h-0.7136993v4.5967007
	c0,2.0206985-1.6520004,3.6651001-3.6826,3.6651001H6.8231001c-2.0306001,0-3.6825001-1.6444016-3.6825001-3.6651001v-4.5967007
	H2.4268c-1.3381,0-2.4268-1.0823002-2.4268-2.4146996v-1.0226002c0-1.3323002,1.0887001-2.4146004,2.4268-2.4146004h0.7138
	v-2.5193996c0-0.4711008,0.3836-0.8528004,0.8566-0.8528004h25.0058002c0.4729996,0,0.8565998,0.3816996,0.8565998,0.8528004
	v2.5193996h0.7136993C31.9113998,15.8745251,33.0000992,16.9568253,33.0000992,18.2891254z M3.1405001,17.5794258H2.4268
	c-0.3935001,0-0.7136,0.3174-0.7136,0.7096996v1.0226002c0,0.3915997,0.3200999,0.7097988,0.7136,0.7097988h0.7137001V17.5794258z
	 M28.1462994,14.2072248H4.8537998v12.115901c0,1.0806999,0.8833003,1.9602985,1.9692001,1.9602985H26.177
	c1.0858994,0,1.9692993-0.8795986,1.9692993-1.9602985V14.2072248z M31.2868996,18.2891254
	c0-0.3922997-0.3200989-0.7096996-0.7136002-0.7096996h-0.7136993v2.4420986h0.7136993
	c0.3935013,0,0.7136002-0.3181992,0.7136002-0.7097988V18.2891254z M26.8612995,1.818925
	c0.2192001,0,0.4383011-0.0818,0.6055012-0.2485l0.1152992-0.1148c0.3346996-0.3334,0.3348007-0.8727,0.0004005-1.2061001
	c-0.3341999-0.3327-0.8767014-0.3327-1.2112999,0l-0.1154003,0.1147c-0.3346004,0.3319-0.3348007,0.8727-0.0004005,1.2062
	C26.4227009,1.737125,26.6420994,1.818925,26.8612995,1.818925z M19.7612991,10.8166246
	c0,0.4711008,0.3836002,0.8528004,0.8566017,0.8528004c0.4729996,0,0.8565998-0.3816996,0.8565998-0.8528004
	c0-0.6737995,0.5506001-1.2214994,1.2270985-1.2214994c0.6766014,0,1.2272015,0.5476999,1.2272015,1.2214994
	c0,0.4711008,0.3836002,0.8528004,0.8565998,0.8528004s0.8565998-0.3816996,0.8565998-0.8528004
	c0-1.6131001-1.3190002-2.9254994-2.9404011-2.9254994C21.0802994,7.8911252,19.7612991,9.2035246,19.7612991,10.8166246z
	 M3.7620001,9.5408249C3.6531,9.0819254,3.9381001,8.6238251,4.3985,8.5144253l9.3057995-2.1898003l-0.1640997-0.6905999
	C13.2322998,4.337625,14.0414,3.0350249,15.3437004,2.7283249l0.9993992-0.2363
	c1.3017998-0.3058999,2.6121998,0.4994001,2.9200001,1.7958999l0.1644001,0.6914001l9.3057003-2.1904998
	c0.4603004-0.1071,0.9218998,0.1750998,1.0307007,0.6340001c0.108799,0.4582-0.1761017,0.9170997-0.6365013,1.0256999
	L4.7927999,10.1741247C4.7265,10.1894255,4.6601,10.1971254,4.5949001,10.1971254
	C4.2068,10.1971254,3.8552001,9.9332247,3.7620001,9.5408249z M15.2075005,5.242425l0.1641998,0.6905999l2.3885002-0.5629001
	l-0.1641998-0.6905999c-0.0775013-0.3266001-0.3712997-0.5468998-0.6945-0.5468998
	c-0.0542011,0-0.1091003,0.0068998-0.1641998,0.0190997l-0.9995012,0.2348003
	C15.3548002,4.4775252,15.1168003,4.8600249,15.2075005,5.242425z"/>
</svg>
