<?xml version="1.0" encoding="utf-8"?>
<!-- Generator: Adobe Illustrator 19.0.1, SVG Export Plug-In . SVG Version: 6.00 Build 0)  -->
<svg version="1.1" id="Layer_1" xmlns="http://www.w3.org/2000/svg" xmlns:xlink="http://www.w3.org/1999/xlink" x="0px" y="0px"
	 viewBox="0 0 14.9997997 35.9998207" style="enable-background:new 0 0 14.9997997 35.9998207;" xml:space="preserve">
<style type="text/css">
	.st0{fill:#FFFFFF;}
</style>
<g>
	<g>
		<path class="st0" d="M12.6880798,10.1448975v-2.263916h-1.1427002c-0.9632568,0-1.7470703-0.7640991-1.7470703-1.7025757V2.239502
			C9.7983704,1.0042114,8.7673035,0,7.5000305,0C6.2325745,0,5.2015076,1.0042114,5.2015076,2.239502v3.9396973
			c0,0.9376831-0.7838135,1.7017822-1.7471313,1.7017822H2.3117981v2.263916
			c-1.2966919,0.1293335-2.3117676,1.1992798-2.3117676,2.4957275v20.8504639c0,1.3843994,1.1551514,2.508728,2.5752563,2.508728
			H12.42453c1.4200439,0,2.5752563-1.1243286,2.5752563-2.508728V12.640625
			C14.9997864,11.3441772,13.9848938,10.274231,12.6880798,10.1448975z M6.330719,6.1791992V2.239502
			c0-0.6279907,0.5244751-1.1403809,1.1693115-1.1403809c0.6445923,0,1.1690674,0.5123901,1.1690674,1.1403809v3.9396973
			c0,0.6394043,0.2216797,1.229126,0.5936279,1.7017822H5.7370911C6.1089783,7.4083252,6.330719,6.8186035,6.330719,6.1791992z
			 M3.4410706,8.980835h8.1177368v1.151062H3.4410706V8.980835z M13.8708191,33.4910889H13.870697
			c0,0.7770996-0.6488037,1.4089355-1.446167,1.4089355H2.57547c-0.7974854,0-1.446167-0.6318359-1.446167-1.4089355v-0.868103
			h4.6369019v-1.0997925H1.129303v-1.15271h1.7470703v-1.098999H1.129303v-1.1526489h4.6369019v-1.0998535H1.129303v-1.1518555
			h1.7470703V24.767334H1.129303v-1.151123h4.6369019v-1.0999146H1.129303V21.364502h1.7470703v-1.0999146H1.129303v-1.151062
			h4.6369019v-1.0997925H1.129303V16.861084h1.7470703v-1.0998535H1.129303V14.609314h4.6369019v-1.0997925H1.129303V12.640625
			c0-0.7770996,0.6486816-1.4088135,1.446167-1.4088135h9.8491211c0.7974243,0,1.446228,0.6317139,1.446228,1.4088135V33.4910889z
			 M11.5586853,29.8206177h1.1292114V19.1257935h-1.1292114V29.8206177z M11.5586853,17.9998779h1.1292114v-1.125061h-1.1292114
			V17.9998779z"/>
	</g>
</g>
</svg>
