<?xml version="1.0" encoding="utf-8"?>
<!-- Generator: Adobe Illustrator 19.0.1, SVG Export Plug-In . SVG Version: 6.00 Build 0)  -->
<svg version="1.1" id="Layer_1" xmlns="http://www.w3.org/2000/svg" xmlns:xlink="http://www.w3.org/1999/xlink" x="0px" y="0px"
	 viewBox="0 0 21.9883575 30.0011101" style="enable-background:new 0 0 21.9883575 30.0011101;" xml:space="preserve">
<style type="text/css">
	.st0{fill:#FFFFFF;}
</style>
<g>
	<g>
		<path class="st0" d="M21.2335949,13.6478529c-0.899231-2.3265991-2.4865112-3.8685913-4.4697266-4.3435059
			c-1.5341797-0.366394-3.1541748-0.0535889-4.6848755,0.9047852c-0.1625977,0.1008911-0.3348999,0.1782227-0.512207,0.2302246
			c-0.0957642-2.0673828,1.329834-3.9558101,3.4100342-4.3657222c0.3587036-0.0695801,0.5925903-0.4198608,0.5222778-0.7810059
			c-0.0703125-0.359375-0.4180298-0.5957642-0.7767334-0.5245972c-0.6339722,0.1254272-1.2299805,0.3549194-1.7695923,0.6761475
			c-0.0614624-1.4042969-0.637085-2.7626345-1.6491089-3.7799075C9.8808727,0.2332413,7.7879162-0.3304183,5.841383,0.1911271
			C5.612318,0.2531388,5.433485,0.4328263,5.3725109,0.6630509C4.8537731,2.6203263,5.4152966,4.7244525,6.8374157,6.1539569
			c1.0583496,1.0639038,2.4879761,1.6473999,3.9523926,1.6627197c-0.3859253,0.7992549-0.5726318,1.6727901-0.5498047,2.5592036
			c-0.1132813-0.045105-0.2241211-0.1002197-0.3305054-0.166748C8.3787975,9.2507582,6.7586803,8.937953,5.2243786,9.304347
			c-1.983093,0.4749146-3.5704954,2.0169067-4.4696045,4.3435059c-0.8662109,2.2418213-0.991272,4.9630747-0.3522949,7.6646128
			c0.6390992,2.7005615,1.9697266,5.074707,3.7468259,6.68396c1.8447876,1.6704102,3.9527588,2.3297119,5.9395752,1.8539429
			c0.0012207,0,0.0079346-0.0021973,0.0090942-0.0021973c0.5862427-0.1415405,1.2061157-0.1415405,1.7891235-0.0007935
			l0.0158691,0.0037842c0.4199219,0.1002197,0.8452148,0.1499023,1.272522,0.1499023
			c1.5913086,0,3.2094116-0.6882935,4.6635132-2.0046387c1.7770996-1.6092529,3.107666-3.9833984,3.7467651-6.68396
			C22.2248669,18.6109276,22.0998058,15.8896742,21.2335949,13.6478529z M9.0957165,4.8750262l1.6005859,1.609314
			C9.6112194,6.4476581,8.5586681,6.0032611,7.773695,5.213161C6.7772961,4.2112689,6.3325939,2.7771256,6.5677013,1.3935807
			c1.3771973-0.237915,2.8032837,0.2102661,3.7998657,1.2114868c0.7856445,0.7901001,1.2279053,1.848572,1.2649536,2.9384768
			l-1.6008301-1.6091921c-0.2584839-0.2600708-0.6776123-0.2600708-0.9359741,0
			C8.8371716,4.1943622,8.8371716,4.615871,9.0957165,4.8750262z M20.297987,21.0041771
			c-0.5775146,2.4406738-1.7653809,4.5730591-3.3447876,6.0032959c-1.5119019,1.3690796-3.1965942,1.9190063-4.7415161,1.5487671
			l-0.0117798-0.0029907c-0.3939819-0.0949097-0.7994385-0.1414795-1.2051392-0.1414795
			c-0.4060669,0-0.812561,0.0473633-1.208252,0.1422119c-0.0007324,0-0.006897,0.0022583-0.0075073,0.0022583
			c-1.5472412,0.3702393-3.2319336-0.1796875-4.7438354-1.5487671c-1.5794065-1.4302368-2.7672727-3.5626221-3.3447874-6.0032959
			c-0.5773926-2.4414063-0.4714966-4.8828125,0.2984009-6.8735971c0.7369385-1.9067993,1.9946899-3.1604004,3.542114-3.5306396
			c1.1828003-0.282959,2.454895-0.0282593,3.678894,0.7388916c1.1008301,0.6882935,2.4682007,0.6882935,3.5690918,0
			c1.223938-0.7671509,2.4960327-1.0218506,3.678894-0.7388916c1.5471191,0.3702393,2.8052368,1.6238403,3.5419922,3.5306396
			C20.7696056,16.1213646,20.8755016,18.5627708,20.297987,21.0041771z M5.9015636,12.1663465
			c-0.5904541,0.1414795-1.6899414,0.6616211-2.4190671,2.5469971c-0.6439209,1.6658335-0.7286987,3.8219004-0.2330322,5.9183969
			c0.0723267,0.3059082,0.343811,0.5109253,0.6434326,0.5109253c0.0507202,0,0.1021729-0.0054321,0.1536863-0.0169067
			c0.3555908-0.0864258,0.5751953-0.4443359,0.4907837-0.8023071c-0.4350586-1.8386841-0.369873-3.7080078,0.1790161-5.1282969
			c0.5294189-1.3690796,1.2192993-1.6672974,1.4915161-1.7330933c0.3555908-0.0848999,0.5753784-0.4436035,0.4907227-0.8007813
			C6.613966,12.3032484,6.2572155,12.0822401,5.9015636,12.1663465z"/>
	</g>
</g>
</svg>
