<?xml version="1.0" encoding="utf-8"?>
<!-- Generator: Adobe Illustrator 19.0.1, SVG Export Plug-In . SVG Version: 6.00 Build 0)  -->
<svg version="1.1" id="Layer_1" xmlns="http://www.w3.org/2000/svg" xmlns:xlink="http://www.w3.org/1999/xlink" x="0px" y="0px"
	 viewBox="0 0 22.9999008 33.9997215" style="enable-background:new 0 0 22.9999008 33.9997215;" xml:space="preserve">
<style type="text/css">
	.st0{fill:#FFFFFF;}
</style>
<g>
	<g>
		<path class="st0" d="M22.9998779,11.9813232c-0.000061-1.196228-1.0875854-2.6815186-4.0756836-3.2039185
			c1.7584839-2.5698853,1.5192871-4.4215698,0.7072144-5.2683105c-0.8118896-0.8458862-2.5892334-1.0944824-5.0560913,0.7365112
			C14.0740967,1.1334839,12.6480103,0,11.4996948,0c-1.1483765,0-2.5742188,1.1334839-3.0750122,4.2456055
			C5.9573975,2.4146118,4.1801147,2.663208,3.368103,3.5090942C2.5562744,4.355835,2.3170166,6.2075195,4.0753174,8.7774048
			C1.0875854,9.2998047,0.0001221,10.7850952,0,11.9813232c0,1.1969604,1.0874023,2.6831055,4.0753174,3.2047119
			c-1.7584229,2.5698853-1.519104,4.4223633-0.7072144,5.2674561c0.6408691,0.6677246,1.8837891,0.9630127,3.5922241,0.1567993
			c-0.4637451,1.1228027-0.6341553,2.3726196-0.5065308,3.7385864c0.1633301,1.7469482,0.8123169,3.6582031,1.9290161,5.6813354
			c1.2702026,2.3013916,2.6801758,3.9030151,2.739563,3.9694824l0.7556152-0.725769
			c-0.0122681-0.0146484-1.0986938-1.2505493-2.1878662-3.0571289c0.9180908-0.147583,2.329895-0.5584106,3.1288452-1.6925659
			c0.4822998,0.4190674,0.9790039,0.6309814,1.4849243,0.6309814c0.1608276,0,0.3225098-0.0214233,0.4849243-0.0650024
			c2.3236084-0.6088867,3.6704712-5.6553345,3.8164673-6.2296753l0.2076416-0.8153076l-0.7967529,0.1513672
			c-0.560791,0.1071167-5.50177,1.1074829-6.2937012,3.4349365c-0.2765503,0.8137817,0.0102539,1.5473022,0.3764038,2.0857544
			c-0.3078003,0.5444946-0.8640747,0.9559937-1.6591797,1.2230225c-0.5186768,0.1743164-1.0114746,0.2423706-1.3200073,0.2692261
			c-0.9483032-1.7821045-1.5009766-3.4518433-1.6425781-4.9645996c-0.1514893-1.621521,0.1828003-3.0494995,0.9940186-4.2602539
			c0.5376587,2.9102173,1.9136963,3.9786987,3.0284424,3.9786987c0.0001221,0,0,0,0.0001221,0
			c1.1483154,0,2.5744019-1.1334839,3.0753784-4.2463989c2.467041,1.8325195,4.2443237,1.5823975,5.0563354,0.7365112
			c0.8120728-0.8450928,1.0512695-2.6975708-0.7073364-5.2674561
			C21.9124146,14.6644287,22.9998779,13.1782837,22.9998779,11.9813232z M12.6918945,25.989502
			c0.3867188-1.1381226,2.805603-2.0858154,4.6768188-2.5546265c-0.5964355,1.8991089-1.6983032,4.3198242-2.8312378,4.6166382
			c-0.1554565,0.0413208-0.6286621,0.1652222-1.3435669-0.630188c-0.0357056-0.0397949-0.0690308-0.0787964-0.1015015-0.1185913
			C12.4926758,26.5753174,12.6425171,26.1348267,12.6918945,25.989502z M17.9226074,14.241394l-0.9691162,0.0949097
			l0.6213379,0.7808838c1.782959,2.2402344,1.9391479,3.9435425,1.3295898,4.5791016
			c-0.6096191,0.6348267-2.2452393,0.4719238-4.3959351-1.3850708l-0.7495117-0.6470947l-0.0905762,1.0095825
			c-0.260376,2.8980103-1.3067017,4.2174072-2.1687012,4.2174072c-0.8618774,0-1.90802-1.319397-2.1682129-4.2174072
			l-0.0904541-1.0095825l-0.7493286,0.6470947c-2.1511841,1.8569946-3.7869263,2.0198975-4.3964233,1.3850708
			c-0.6094971-0.6355591-0.4534912-2.3388672,1.3293457-4.579895l0.6210938-0.7800903L5.0767212,14.241394
			c-2.7816162-0.2722778-4.0484009-1.3613892-4.0484009-2.2600708c0-0.8978882,1.2667847-1.987793,4.0484009-2.258606
			l0.9689941-0.0947876L5.4246216,8.8477173C3.6419067,6.6060181,3.4857788,4.901123,4.0952759,4.2662964
			c0.609436-0.6340942,2.2451172-0.4727173,4.3964233,1.3851318l0.7493286,0.6470947l0.0904541-1.0087891
			c0.2601929-2.8980103,1.3063354-4.2182007,2.168335-4.2182007c0.8619995-0.0007324,1.9082642,1.3201904,2.1687012,4.2182007
			l0.0907593,1.0087891l0.7492065-0.6470947c2.1509399-1.8578491,3.7866211-2.0192261,4.3959961-1.3851318
			c0.6094971,0.6348267,0.4534302,2.3397217-1.3295898,4.5814209l-0.6212769,0.7802124l0.9691772,0.0947876
			c2.7819214,0.270813,4.0488281,1.3607178,4.0488281,2.258606C21.9716187,12.8800049,20.7047119,13.9691162,17.9226074,14.241394z
			 M11.5001221,8.4592285c-1.7740479,0-3.2171021,1.5028687-3.2171021,3.350769
			c0,1.8486328,1.4430542,3.3522949,3.2171021,3.3522949c1.7738647,0,3.2171021-1.5036621,3.2171021-3.3522949
			C14.7171021,9.9620972,13.2739868,8.4592285,11.5001221,8.4592285z M11.5001221,14.0908203
			c-1.2069092,0-2.1888428-1.0234375-2.1888428-2.2800903c0-1.2574463,0.9819336-2.2814941,2.1888428-2.2814941
			c1.2068481,0,2.1887817,1.0240479,2.1887817,2.2814941C13.6889038,13.0673828,12.7069702,14.0908203,11.5001221,14.0908203z"/>
	</g>
</g>
</svg>
