<?xml version="1.0" encoding="utf-8"?>
<!-- Generator: Adobe Illustrator 19.0.1, SVG Export Plug-In . SVG Version: 6.00 Build 0)  -->
<svg version="1.1" id="Layer_1" xmlns="http://www.w3.org/2000/svg" xmlns:xlink="http://www.w3.org/1999/xlink" x="0px" y="0px"
	 viewBox="0 0 33.9996109 24.9998436" style="enable-background:new 0 0 33.9996109 24.9998436;" xml:space="preserve">
<style type="text/css">
	.st0{fill:#FFFFFF;}
</style>
<g>
	<g>
		<path class="st0" d="M17.1916046,21.4910889c-0.0493774,0.1453247-0.1992188,0.5858154,0.4005127,1.3132324
			c0.0324707,0.0397949,0.0657959,0.0787964,0.1015015,0.1185913c0.7149048,0.7954102,1.1881104,0.6715088,1.3435669,0.630188
			c1.1329346-0.296814,2.2348022-2.7175293,2.8312378-4.6166382C19.9972076,19.4052734,17.5783234,20.3529663,17.1916046,21.4910889
			z"/>
	</g>
</g>
<g>
	<g>
		<path class="st0" d="M30.0039825,13.3963013c-0.296875,0-1.1565552,0-4.1452026,1.369812
			c-0.2364502-1.5059814-0.6953735-3.0975952-1.350647-4.6448975c-0.8139038-1.9220581-1.8643188-3.6560059-3.0757446-5.0877686
			c0.2001953-0.006897,0.4006348-0.0107422,0.6005249-0.0107422c2.7156982,0,5.3457031,0.6509399,7.4060059,1.8334351
			c0.2581787,0.1483154,0.5823975,0.1101074,0.7994995-0.0941162c0.2171021-0.2026978,0.2758789-0.5255127,0.1452026-0.7932129
			C28.6414948,2.3984985,23.8166046,0,18.3773346,0c-1.0532227,0-2.1008301,0.0895386-3.1136475,0.2669067
			c-1.1036987,0.1920166-2.1654663,0.4887085-3.1558838,0.8803101h-0.0003052
			c-0.7052612,0.27771-1.3742065,0.6043091-1.9884033,0.9705811c-1.8515015,1.055542-3.5822754,2.836853-5.0058594,5.1490479
			c-1.3085327,2.1254883-2.2756958,4.5905762-2.7235107,6.9378662c-0.1854248,0.9729004-0.2796021,1.90979-0.2796021,2.7871094
			c0,0.5712891-0.5610961,1.2727051-1.0562133,1.890686c-0.6699219,0.8390503-1.4296265,1.788208-0.8452148,2.7122192
			c0.8981323,1.4194946,2.8778076,2.3679199,6.0523071,2.8980103c2.7142334,0.4550171,5.760498,0.5070801,7.8157349,0.5070801
			c1.9581909,0,3.496582-0.1040649,4.8416748-0.3289185c3.4265747-0.5705566,5.5631104-1.9901733,6.5314941-4.3397827
			c0.0001221,0,0.0001831-0.0006714,0.0003052-0.0006714c0.0551758-0.1347046,0.1060791-0.2723389,0.1536255-0.4122925
			c3.1951904,1.4891968,4.0940552,1.4891968,4.4002686,1.4891968c2.203186,0,3.9954834-1.7974243,3.9954834-4.0054932
			C33.9994049,15.1929321,32.2071075,13.3963013,30.0039825,13.3963013z M14.0767365,23.6421509
			c-2.1726074,0-4.078125-0.083313-5.7134399-0.2493286c0.5012207-0.9752197,0.7637939-2.0527954,0.7637939-3.1671753
			c0-0.3763428-0.3031006-0.6791992-0.677063-0.6791992c-0.3740234,0-0.6773071,0.3028564-0.6773071,0.6791992
			c0,1.067688-0.2990112,2.0957031-0.866333,2.9874878c-2.9763794-0.4412842-4.8344727-1.2214966-5.5476685-2.3359375
			c0.0062866-0.211792,0.4718628-0.7938843,0.7521971-1.1448975c0.6345215-0.7939453,1.3536987-1.692688,1.3536987-2.7404785
			c0-0.7915649,0.0859985-1.6428833,0.2553711-2.5324097c0.899231-4.7138062,3.8081055-9.3043823,7.0740356-11.1644897
			c0.0039063-0.0023193,0.0078735-0.0045776,0.0117798-0.0075684c0.3515015-0.2088013,0.723999-0.4053955,1.1130371-0.5844116
			L17.9392853,23.44104C16.8460236,23.576416,15.5736237,23.6421509,14.0767365,23.6421509z M19.2862091,23.2215576
			L13.1823883,2.1966553c0.5842285-0.2011108,1.192749-0.3679199,1.8189087-0.4979248l9.0745239,18.3883667
			C23.298111,21.7025146,21.7606354,22.7098389,19.2862091,23.2215576z M24.6219025,18.1314087L16.4007111,1.4723511
			c0.6502686-0.0765381,1.3120117-0.1147461,1.9766846-0.1147461c2.4699097,0,4.8193359,0.520813,6.7947388,1.5060425
			c0.9638062,0.4802856,1.8082886,1.0631104,2.4976807,1.7163086c-1.7393188-0.5974121-3.6705322-0.9156494-5.6367188-0.9156494
			c-0.7119751,0-1.4290161,0.0421143-2.1309814,0.1240234c-0.2590942,0.0305176-0.4779053,0.2080078-0.5621948,0.4558105
			c-0.0844116,0.2478027-0.0195313,0.5200806,0.1669922,0.7028809c3.0026855,2.9484863,5.1820068,8.0140991,5.1820068,12.0447998
			C24.688797,17.3895264,24.6663971,17.7704468,24.6219025,18.1314087z M30.0039825,20.0489502
			c-0.2905884,0-1.2613525-0.147644-4.0760498-1.4769287c0.0766602-0.4987183,0.1151733-1.0263672,0.1151733-1.5802002
			c0-0.2631226-0.008606-0.5308228-0.0253906-0.8023071c2.7470703-1.2910767,3.7000122-1.4356079,3.9863892-1.4356079
			c1.4562988,0,2.6409912,1.1885376,2.6409912,2.6479492C32.6450958,18.8619385,31.4602814,20.0489502,30.0039825,20.0489502z
			 M10.0684357,18.9804077l3.0634766,3.0715942c0.1323242,0.1324463,0.305603,0.1981201,0.4788208,0.1981201
			c0.1732788,0,0.3466797-0.0656738,0.4787598-0.1981201c0.9462891-0.9483643,1.4674072-2.2103882,1.4674072-3.5511475
			c0-1.3415527-0.5211182-2.6035156-1.4674072-3.5519409c-0.2642822-0.2653809-0.6931763-0.2653809-0.9575806,0
			l-3.0634766,3.0715942C9.8040314,18.2859497,9.8040314,18.7150269,10.0684357,18.9804077z M13.5667877,16.4335327
			c0.4134521,0.604187,0.6358032,1.3178101,0.6358032,2.0673218c-0.000061,0.7480469-0.2223511,1.4624023-0.6358032,2.0666504
			l-2.0618896-2.0666504L13.5667877,16.4335327z M5.2656403,18.314209c-0.4752197,0-0.8617554,0.3878174-0.8617554,0.8635254
			c0,0.4765015,0.3865356,0.8634644,0.8617554,0.8634644c0.4750977,0,0.8615723-0.3869629,0.8615723-0.8634644
			C6.1272125,18.7020264,5.7406158,18.314209,5.2656403,18.314209z M8.2249298,16.7991333
			c-0.1851196-0.3259277-0.5985107-0.4390869-0.9237061-0.2540283c-0.3248901,0.1859131-0.4382935,0.6004028-0.2532349,0.9263306
			c0.1622925,0.2860107,0.2998047,0.5874023,0.4086914,0.8963623c0.0981445,0.2784424,0.359436,0.4528198,0.6384277,0.4528198
			c0.0748901,0,0.151123-0.0122681,0.225708-0.0397949c0.3527222-0.1239014,0.5374756-0.5125122,0.4129028-0.8657837
			C8.5980377,17.5303345,8.4268341,17.1540527,8.2249298,16.7991333z"/>
	</g>
</g>
</svg>
