<?xml version="1.0" encoding="utf-8"?>
<!-- Generator: Adobe Illustrator 19.0.1, SVG Export Plug-In . SVG Version: 6.00 Build 0)  -->
<svg version="1.1" id="Layer_1" xmlns="http://www.w3.org/2000/svg" xmlns:xlink="http://www.w3.org/1999/xlink" x="0px" y="0px"
	 viewBox="0 0 31.0000305 21.0004272" style="enable-background:new 0 0 31.0000305 21.0004272;" xml:space="preserve">
<style type="text/css">
	.st0{fill:#FFFFFF;}
</style>
<g>
	<g>
		<path class="st0" d="M21.0168762,6.3007813h2.1017456c0.2901001,0,0.5253906-0.2355957,0.5253906-0.5254517
			c0-0.2906494-0.2352905-0.5245972-0.5253906-0.5245972h-2.1017456c-0.2901001,0-0.5253906,0.2339478-0.5253906,0.5245972
			C20.4914856,6.0651855,20.7267761,6.3007813,21.0168762,6.3007813z M21.0168762,8.3995361h2.1017456
			c0.2901001,0,0.5253906-0.2348022,0.5253906-0.5247192c0-0.2897949-0.2352905-0.5245972-0.5253906-0.5245972h-2.1017456
			c-0.2901001,0-0.5253906,0.2348022-0.5253906,0.5245972C20.4914856,8.1647339,20.7267761,8.3995361,21.0168762,8.3995361z
			 M21.0168762,10.5006104h2.1017456c0.2901001,0,0.5253906-0.2355957,0.5253906-0.5255127
			s-0.2352905-0.5246582-0.5253906-0.5246582h-2.1017456c-0.2901001,0-0.5253906,0.2347412-0.5253906,0.5246582
			S20.7267761,10.5006104,21.0168762,10.5006104z M21.0168762,12.6008301h2.1017456
			c0.2901001,0,0.5253906-0.2355347,0.5253906-0.5253906c0-0.2891235-0.2352905-0.5247192-0.5253906-0.5247192h-2.1017456
			c-0.2901001,0-0.5253906,0.2355957-0.5253906,0.5247192C20.4914856,12.3652954,20.7267761,12.6008301,21.0168762,12.6008301z
			 M28.9944763,14.7806396c-0.0637817-0.0841064-0.1481934-0.1422119-0.2406006-0.1759033L25.745575,3.0831299V1.5786133
			C25.745575,0.7075195,25.0378723,0,24.1681824,0H6.8316956c-0.869812,0-1.5775146,0.7075195-1.5775146,1.5786133v1.5679932
			c0,0.8710938,0.7077026,1.5786133,1.5775146,1.5786133H18.389801v4.4008789
			c-0.9486084-0.1329956-1.9177856-0.2011108-2.8897705-0.2011108c-8.546814,0-15.5,5.1811523-15.5,11.5507202
			c0,0.289917,0.2352905,0.5247192,0.5253906,0.5247192h29.9491577c0.2901001,0,0.5254517-0.2348022,0.5254517-0.5247192
			C31.0000305,18.4755859,30.306427,16.506897,28.9944763,14.7806396z M6.8316956,3.6757813
			c-0.295166,0-0.5266113-0.2324829-0.5266113-0.5291748V1.5786133c0-0.2905884,0.2362061-0.5285034,0.5266113-0.5285034h17.3364868
			c0.2952271,0,0.5267334,0.2324829,0.5267334,0.5285034v1.5709839c0,0.0458984,0.0057983,0.0895386,0.0170898,0.1331177
			l2.9807129,11.4176025h-8.2521362V4.2005005c0-0.289917-0.2352905-0.5247192-0.5253906-0.5247192H6.8316956z
			 M15.5000305,9.9750977c0.9732666,0,1.9432983,0.0718994,2.8897705,0.2111206v5.0388184
			c0,0.289856,0.2352905,0.5254517,0.5253906,0.5254517h9.4575806c0.0084229,0,0.0164185-0.0030518,0.0248413-0.0030518
			c0.4667969,0.6707764,0.8322754,1.3759766,1.0906982,2.1032715H1.5088806
			C3.1169739,13.3259277,8.7795105,9.9750977,15.5000305,9.9750977z M1.068573,19.9509888
			c0.024231-0.3555908,0.072998-0.7058716,0.1447144-1.0509033h28.5701294
			c0.0727539,0.3480225,0.1231079,0.6983032,0.1473999,1.0509033H1.068573z M12.7605896,11.8314209
			c-2.8621826,0.5047607-5.2896729,1.6505127-6.8355103,3.2260742c-0.203064,0.2081299-0.1997681,0.5400391,0.0075073,0.7427368
			c0.1022949,0.1008911,0.2349854,0.1506958,0.3677979,0.1506958c0.1362305,0,0.2723999-0.0527954,0.3753052-0.1584473
			c1.3934937-1.4202881,3.6193848-2.4604492,6.2675171-2.9277954c0.2858887-0.0496826,0.4766235-0.3219604,0.4260864-0.6079712
			C13.3188171,11.9714355,13.0445251,11.7808838,12.7605896,11.8314209z"/>
	</g>
</g>
</svg>
