<?xml version="1.0" encoding="utf-8"?>
<!-- Generator: Adobe Illustrator 19.0.1, SVG Export Plug-In . SVG Version: 6.00 Build 0)  -->
<svg version="1.1" id="Layer_1" xmlns="http://www.w3.org/2000/svg" xmlns:xlink="http://www.w3.org/1999/xlink" x="0px" y="0px"
	 viewBox="0 0 17.9995003 26.0025005" style="enable-background:new 0 0 17.9995003 26.0025005;" xml:space="preserve">
<style type="text/css">
	.st0{fill:#FFFFFF;}
</style>
<path class="st0" d="M14.4629993,7.25C12.6419001,4.2082,10.6166,1.5733,9.5712996,0.2746C9.4312,0.1002,9.2214994,0,8.9998999,0
	C8.7782001,0,8.5684996,0.1002,8.4284,0.2746C7.3831997,1.574,5.3576999,4.2089,3.5367,7.2529998
	C1.1898999,11.1736002,0,14.4173002,0,16.8892994c0,5.0251007,4.0373001,9.1132011,8.9997997,9.1132011
	s8.9997005-4.0881004,8.9997005-9.1132011C17.9995995,14.4166002,16.8097992,11.1721001,14.4629993,7.25z M10.2347994,22.6455994
	C9.7093,22.7801991,9.1637001,22.8512993,8.6132002,22.8512993c-3.3624005,0-6.0978003-2.5721989-6.0978003-5.7347984
	c0-0.7632999,0.1989-1.6551008,0.5913999-2.651001c0.0662-0.1681995,0.2549-0.2653999,0.4411001-0.2241001
	c0.1859999,0.0412998,0.3109,0.2049999,0.2916,0.3832006c-0.0229001,0.2142-0.0344,0.4213991-0.0344,0.6202993
	c0,3.4418011,2.7388,6.323,6.3706994,6.701601c0.1809006,0.0205994,0.3219004,0.1575985,0.3362007,0.3273983
	C10.5264997,22.4452,10.4102001,22.6004009,10.2347994,22.6455994z"/>
</svg>
