<?xml version="1.0" encoding="utf-8"?>
<!-- Generator: Adobe Illustrator 19.0.1, SVG Export Plug-In . SVG Version: 6.00 Build 0)  -->
<svg version="1.1" id="Layer_1" xmlns="http://www.w3.org/2000/svg" xmlns:xlink="http://www.w3.org/1999/xlink" x="0px" y="0px"
	 viewBox="0 0 58.0001984 27.9988003" style="enable-background:new 0 0 58.0001984 27.9988003;" xml:space="preserve">
<style type="text/css">
	.st0{fill:#FFFFFF;}
</style>
<path class="st0" d="M56.2511978,17.1854v-5.2063999c0-1.9182005-1.5439987-3.5565004-3.4799995-3.5565004L48.150898,8.0094995
	L44.0650978,1.711C43.9937973,1.6391,43.9937973,1.5771,43.9343987,1.5037C43.3286972,0.618,42.2597008,0,41.1194992,0h-8.7061996
	H15.8680992C14.1222,0,12.6493998,1.3714,12.4474993,3.0824001H1.4015c-0.7364,0-1.4015,0.6187-1.4015,1.4317
	c0,0.7526999,0.6057,1.4326,1.4015,1.4326h12.6612997c0.0713005,0,0.1307001,0,0.2019005,0
	c0.6651993,0.0727,1.1996994,0.6799998,1.1996994,1.3720999c0,0.7510996-0.6057997,1.4317999-1.4015999,1.4317999h-1.6746998
	H4.7509999c-0.7364001,0-1.4016001,0.6196003-1.4016001,1.4317999c0,0.7519007,0.6058002,1.4333,1.4016001,1.4333h7.6370997
	h6.2236996c0.7364998,0,1.4015999,0.618,1.4015999,1.4302998c0,0.7526007-0.6056995,1.4333-1.4015999,1.4333h-6.2236996H8.7655001
	c-0.7363005,0-1.4015002,0.618-1.4015002,1.4318008c0,0.7533989,0.6058002,1.4317989,1.4015002,1.4317989h3.6106997
	c-0.8669996,0.2073002-1.4727001,1.0310001-1.4727001,1.9909V21.9305c0,1.0914001,0.8669996,2.0527992,2.0072002,2.0527992
	h2.8148994c0.6058006,2.2571011,2.6844006,3.9665012,5.0953999,3.9665012c2.4111996,0,4.4897995-1.6016006,5.083601-3.9190998
	h6.4256001h10.986599c0.6057014,2.2563,2.6842995,3.9680996,5.0955009,3.9680996
	c2.4109993,0,4.4895973-1.6382999,5.0951996-3.9680996h2.4824982c1.0690002,0,2.0070992-0.8857002,2.0070992-2.052v-2.5959015
	C58.0566978,18.1452007,57.2488976,17.2465,56.2511978,17.1854z M20.8209991,24.9890995
	c-1.4727001,0-2.6842003-1.2252998-2.6842003-2.7426987c0-1.5167007,1.1996002-2.7428017,2.6842003-2.7428017
	c1.4728012,0,2.6842995,1.2261009,2.6842995,2.7428017C23.5052986,23.7637997,22.2938004,24.9890995,20.8209991,24.9890995z
	 M48.4833984,24.9890995c-1.4728012,0-2.6842995-1.2252998-2.6842995-2.7426987
	c0-1.5167007,1.1996994-2.7428017,2.6842995-2.7428017c1.4729004,0,2.6843987,1.2261009,2.6843987,2.7428017
	C51.1677971,23.7637997,49.9562988,24.9890995,48.4833984,24.9890995z"/>
</svg>
