<?xml version="1.0" encoding="utf-8"?>
<!-- Generator: Adobe Illustrator 19.0.1, SVG Export Plug-In . SVG Version: 6.00 Build 0)  -->
<svg version="1.1" id="Layer_1" xmlns="http://www.w3.org/2000/svg" xmlns:xlink="http://www.w3.org/1999/xlink" x="0px" y="0px"
	 viewBox="0 0 37.9960976 47.0051994" style="enable-background:new 0 0 37.9960976 47.0051994;" xml:space="preserve">
<style type="text/css">
	.st0{fill:#FFFFFF;}
</style>
<path class="st0" d="M17.3274994,13.9645004h4.3792v5.0060005h2.8899002V2.1078999C24.5965996,0.9438,23.6693993,0,22.5248985,0
	H2.0730999C0.9286,0,0,0.9438,0,2.1078999v42.7877998c0,1.1664009,0.9286,2.1095009,2.0730999,2.1095009H9.4312V33.3036995
	h5.6997995V21.8370991c0-1.2435989,0.9012003-2.2791996,2.1960001-2.6814995v-5.1910992H17.3274994z M17.3274994,4.2150002h4.3792
	v6.3223h-4.3792V4.2150002z M7.3437996,39.7681999H2.9649999v-6.324501h4.3787994V39.7681999z M7.3437996,30.5112H2.9649999
	v-6.3244991h4.3787994V30.5112z M7.3437996,20.2882996H2.9649999v-6.3237991h4.3787994V20.2882996z M7.3437996,10.5388002H2.9649999
	V4.2150002h4.3787994V10.5388002z M14.6470995,30.5112h-4.3779993v-6.3244991h4.3779993V30.5112z M14.6470995,20.2882996h-4.3779993
	v-6.3237991h4.3779993V20.2882996z M14.6470995,10.5388002h-4.3779993V4.2150002h4.3779993V10.5388002z M36.2403984,20.6562004
	H18.9183998c-0.9696007,0-1.7557011,0.5299988-1.7557011,1.1808987v23.9871006c0,0.6516991,0.7861004,1.1809998,1.7557011,1.1809998
	h6.232399v-7.6799011h5.0043011v7.6799011h6.0852985c0.9692993,0,1.7556992-0.5293007,1.7556992-1.1809998V21.8370991
	C37.9960976,21.1861992,37.2096977,20.6562004,36.2403984,20.6562004z M23.3818989,42.9483986h-3.7085991v-3.5449982h3.7085991
	V42.9483986z M23.3818989,37.7597008h-3.7085991v-3.543499h3.7085991V37.7597008z M23.3818989,32.0287018h-3.7085991v-3.544302
	h3.7085991V32.0287018z M23.3818989,26.5639h-3.7085991v-3.5450993h3.7085991V26.5639z M29.5691986,37.7597008h-3.7087002v-3.543499
	h3.7087002V37.7597008z M29.5691986,32.0287018h-3.7087002v-3.544302h3.7087002V32.0287018z M29.5691986,26.5639h-3.7087002
	v-3.5450993h3.7087002V26.5639z M35.5481987,43.0271988h-3.7085991v-3.5443001h3.7085991V43.0271988z M35.5481987,37.7597008
	h-3.7085991v-3.543499h3.7085991V37.7597008z M35.5481987,32.0287018h-3.7085991v-3.544302h3.7085991V32.0287018z
	 M35.5481987,26.5639h-3.7085991v-3.5450993h3.7085991V26.5639z"/>
</svg>
