<svg id="Layer_1" data-name="Layer 1" xmlns="http://www.w3.org/2000/svg" viewBox="0 0 278 93.6"><defs><style>.cls-1{fill:#7d7d7d;}.cls-2{fill:#00addd;}</style></defs><title>Artboard 1</title><path class="cls-1" d="M271.27,0a6.63,6.63,0,1,1,0,13.25,6.69,6.69,0,0,1-6.8-6.64,6.65,6.65,0,0,1,6.8-6.6Zm-.08,1.33a5.15,5.15,0,0,0-5.08,5.28,5.14,5.14,0,0,0,5.15,5.28,5.06,5.06,0,0,0,5-5.23,5.14,5.14,0,0,0-5.08-5.32Zm-1,8.7h-1.53V3.42a17.89,17.89,0,0,1,2.54-.2,3.53,3.53,0,0,1,2.26.52,1.67,1.67,0,0,1,.68,1.41,1.71,1.71,0,0,1-1.37,1.57v.08c.64.2,1,.72,1.17,1.61a5.84,5.84,0,0,0,.48,1.61h-1.61a5.29,5.29,0,0,1-.52-1.61c-.12-.68-.52-1-1.37-1h-.72Zm0-3.71H271c.85,0,1.53-.28,1.53-1s-.44-1-1.41-1a3.62,3.62,0,0,0-.85.08Z"/><path class="cls-1" d="M43.55,53.33a103.32,103.32,0,0,0-.87-13.68c-.66-3.94-3.62-7.44-9.19-10.51a34.44,34.44,0,0,0-11.16-3.71,40.41,40.41,0,0,0-7.44-.66c-1.65,0-3.07,0-4.27.11a16.74,16.74,0,0,0-4.27.66v14A28.18,28.18,0,0,1,13,35.82a15.21,15.21,0,0,1,5.8-1.09,11.89,11.89,0,0,1,3.5.44,10.71,10.71,0,0,1,4.81,2.52,10.15,10.15,0,0,1,3.29,8,58,58,0,0,0-8.1,2.18A52.36,52.36,0,0,0,9.19,54.43C3.07,58.59,0,64.27,0,71.38A17.37,17.37,0,0,0,4.81,83.75a15.46,15.46,0,0,0,11.6,4.92,16.23,16.23,0,0,0,5.91-1.09,25.45,25.45,0,0,0,8.1-5.37,22.33,22.33,0,0,0,1.09,3.07A6.19,6.19,0,0,0,33,87.47H46.18q-2.62-7.55-2.63-21.67Zm-13.13,21a11.94,11.94,0,0,1-8.1,3.82h-.55a6.91,6.91,0,0,1-5.47-2.4,9.23,9.23,0,0,1-2.19-6.24,11.85,11.85,0,0,1,4.37-9.41,18.45,18.45,0,0,1,3.83-2.3,28.15,28.15,0,0,1,8.1-2Z"/><path class="cls-1" d="M192.7,4l.22-1.85H178.58V4.42L179,22.8V66.13l-.44,19.37-.22,2H192.7V77.84L192.26,66V22.8Z"/><path class="cls-1" d="M115,25.1h-.11c-7,0-13,3.07-17.84,9.31s-7.33,13.79-7.33,22.65,2.52,16.52,7.44,22.65,10.94,9.41,17.73,9.41H115c6.89,0,12.81-3.17,17.73-9.41s7.33-13.9,7.33-22.87a35.29,35.29,0,0,0-7.44-22.43C127.7,28.16,121.79,25.1,115,25.1ZM115,80h-.11q-10.17-.16-10.18-23c0-15.1,3.39-22.76,10.18-22.87H115c6.67,0,10.07,7.66,10.07,22.87S121.68,80,115,80Z"/><path class="cls-1" d="M72.77,20.5a89.7,89.7,0,0,1,.65-12.15H58.76a82,82,0,0,1,.77,12.15v6.34H51.1v9.63h8.43V69.64c0,7,1,11.93,2.73,14.88s5.91,4.26,12.58,4.26a27.93,27.93,0,0,0,4.38-.21,38.69,38.69,0,0,0,5.25-1.1V78.71a41,41,0,0,1-4.92.43c-2.63,0-4.49-.76-5.37-2.07s-1.42-3.83-1.42-7.44V36.48h11.7V26.85H72.77Z"/><path class="cls-1" d="M150.79,4.42l.44,18.38V66.13l-.44,19.37-.22,2h14.34V77.84L164.47,66V22.8L164.91,4l.21-1.85H150.79Z"/><path class="cls-2" d="M276.3,48.41,240.19,3.22l-14,17.5,22.11,13.79-8.54,5.25L225.52,21.93l-14,17.5,14.33,9-14.33,9,7.33,9.19,6.67,8.32,14.22-17.83,8.54,5.36L226.18,76.09l14,17.5Zm-21.45,8.86-8.2-10.07,8.2-10.07L270.94,47.2Z"/></svg>