<?xml version="1.0" encoding="utf-8"?>
<!-- Generator: Adobe Illustrator 19.0.0, SVG Export Plug-In . SVG Version: 6.00 Build 0)  -->
<svg version="1.1" id="Layer_1" xmlns="http://www.w3.org/2000/svg" xmlns:xlink="http://www.w3.org/1999/xlink" x="0px" y="0px"
	 viewBox="-849.2548828 517.6923218 80.509758 45.6198273"
	 style="enable-background:new -849.2548828 517.6923218 80.509758 45.6198273;" xml:space="preserve">
<style type="text/css">
	.st0{fill:#FCBC3D;}
	.st1{fill:#1D1D1B;}
	.st2{fill:#FFFFFF;}
	.st3{fill:#469FE3;}
</style>
<g>
	<path class="st0" d="M-770.9539185,528.6453247l-11.7682495-9.644165c-1.496582-1.2263184-4.2015381-1.6711426-6.0116577-0.9885864
		l-14.2362671,5.3695068c-1.8101807,0.6825562-3.5480347,2.8030396-3.8616333,4.7119141l-2.4683228,15.0137329
		c-0.3139038,1.9087524,0.6535645,4.4741821,2.1500854,5.7001343l11.7677002,9.6445313
		c1.496582,1.2260132,4.2012329,1.6705322,6.0114136,0.9879761l14.2362671-5.3692017
		c1.8104248-0.6824951,3.5485229-2.8027954,3.8624268-4.7119141l2.4677124-15.0134277
		C-768.4899902,532.4370117-769.4577026,529.8716431-770.9539185,528.6453247z"/>
	<path class="st1" d="M-846.9196777,528.0817871c0.0407104-0.2872925,0.1231079-0.46698,0.2467041-0.5391235
		c0.1230469-0.0718384,0.2976074-0.1078491,0.5236816-0.1078491h1.6947021c0.2667236,0,0.4467163,0.0360107,0.5394287,0.1078491
		c0.0921021,0.0721436,0.1181641,0.2518311,0.0769653,0.5391235l-2.2183838,15.7463989
		c-0.2060547,1.5616455,0.4515991,2.34198,1.9716797,2.34198h8.2891846c0.2260742,0,0.359436,0.0460815,0.4006348,0.1387939
		c0.0411987,0.0924683,0.0411987,0.230957,0,0.4158325l-0.2461548,1.7564697
		c-0.041748,0.2057495-0.0878296,0.3543091-0.1387939,0.4467163c-0.0515137,0.0924683-0.1902466,0.1387939-0.4157715,0.1387939
		h-8.5358276c-0.986145,0-1.7928467-0.1387939-2.4189453-0.4160767c-0.6273193-0.2773438-1.1048584-0.6470337-1.4331055-1.1091919
		c-0.3288574-0.4621582-0.5343018-1.0064697-0.6161499-1.6331787c-0.0823975-0.6264038-0.0723877-1.2991943,0.0305786-2.0183105
		L-846.9196777,528.0817871z"/>
	<path class="st1" d="M-828.4309692,540.8391724l-1.0787964,7.5805664
		c-0.0411377,0.2879028-0.1078491,0.4673462-0.2000122,0.5391846c-0.0927124,0.0723267-0.282959,0.1078491-0.5703735,0.1078491
		h-2.2183228c-0.2266235,0-0.395752-0.0409546-0.5085449-0.1233521c-0.1132813-0.0818481-0.1496582-0.2564087-0.1079102-0.5236816
		l2.7426758-19.2284546c0.0818481-0.5748901,0.2564087-1.0115967,0.5236816-1.3098145
		c0.2667236-0.2976074,0.7188721-0.4466553,1.355835-0.4466553h6.9641724c0.944397,0,1.7922974,0.1439209,2.5420532,0.4312134
		c0.7497559,0.2879028,1.3813477,0.6934204,1.8952637,1.2173462c0.5134277,0.5236816,0.9037476,1.1555786,1.1710205,1.8950195
		c0.2667236,0.7394409,0.4006348,1.5513306,0.4006348,2.4344482c0,0.7194214-0.1133423,1.5097656-0.3388062,2.3726196
		c-0.2266235,0.862793-0.6370239,1.6694946-1.2328491,2.4189453c-0.5963135,0.7503052-1.4127808,1.37677-2.4498291,1.8798218
		c-1.0376587,0.5036621-2.3778076,0.7549438-4.0215454,0.7549438H-828.4309692z M-826.9829102,530.8244629l-0.9552002,6.8408203
		h4.4373169c1.3759155,0,2.4135132-0.369751,3.1123657-1.1094971c0.6982422-0.7394409,1.0479126-1.684082,1.0479126-2.8347778
		c0-0.3284912-0.0466309-0.6673584-0.1387939-1.0170288c-0.0927124-0.3491211-0.256958-0.6624756-0.4932861-0.9397583
		c-0.2363892-0.2772827-0.5649414-0.5031128-0.986145-0.6779785c-0.4212646-0.1742554-0.960144-0.2617798-1.6177368-0.2617798
		H-826.9829102z"/>
	<path class="st2" d="M-781.3997803,528.9373169l-0.3391113,2.4345093c-0.0414429,0.2672119-0.123291,0.4468994-0.2463379,0.5393677
		c-0.1233521,0.0924683-0.2981567,0.1385498-0.5239868,0.1385498h-8.7206421l-1.0167847,3.9800415
		c0.697998-0.2277222,1.3813477-0.3778687,2.0492554-0.4508667c0.6672974-0.0720215,1.2989502-0.1086426,1.8949585-0.1086426
		c2.0132446,0,3.6000366,0.4992676,4.7609863,1.4979248c1.1604614,0.9985962,1.7410889,2.4555664,1.7410889,4.369812
		c0,1.338501-0.2467041,2.5067749-0.7397461,3.5054321c-0.4928589,0.9985352-1.1555786,1.8323364-1.9874268,2.5016479
		c-0.8319092,0.6692505-1.7980347,1.1734009-2.8966675,1.5133667c-1.0991211,0.3393555-2.2546387,0.5092773-3.4665527,0.5092773
		c-1.1506958,0-2.3526001-0.1490479-3.6054688-0.4467163c-1.2531128-0.2976074-2.4341431-0.9191895-3.5436401-1.8643799
		c-0.2463379-0.1848755-0.2672729-0.4312134-0.0615234-0.7394409l1.4789429-2.2804565
		c0.1642456-0.2049561,0.3130493-0.3082275,0.4469604-0.3082275c0.1333618,0,0.3234253,0.0823975,0.5700684,0.2466431
		c0.697998,0.4727783,1.4483032,0.8273315,2.2492676,1.0631714c0.8012695,0.2363281,1.59198,0.354248,2.3729248,0.354248
		c1.5407104,0,2.7166138-0.3282471,3.5281372-0.986084c0.8113403-0.6571045,1.2173462-1.5713501,1.2173462-2.7423706
		c0-0.8213501-0.262085-1.4431152-0.7857666-1.8643799c-0.5239868-0.4207153-1.2070923-0.6315918-2.0492554-0.6315918
		c-0.862793,0-1.5976563,0.1079102-2.203186,0.3233643c-0.6061401,0.2158203-1.2585449,0.4675903-1.9568481,0.755188
		c-0.2463989,0.1029663-0.5291138,0.1694336-0.8473511,0.2000732c-0.3187256,0.0308838-0.6115112-0.0046387-0.8782349-0.107605
		l-1.0167236-0.3082275c-0.4522095-0.1436768-0.7348633-0.3591919-0.8476563-0.6472778
		c-0.1130371-0.2873535-0.107605-0.6671143,0.0154419-1.1401978l1.848938-7.7036133
		c0.2052002-0.8012085,0.5131226-1.3812866,0.9243164-1.7409668c0.4109497-0.3591919,0.9446411-0.5394287,1.6025391-0.5394287
		h10.4153442c0.2667236,0,0.4467163,0.0308228,0.5394287,0.0926514
		C-781.3842773,528.4136353-781.3588257,528.6090698-781.3997803,528.9373169z"/>
	<path class="st3" d="M-777.2764893,555.7894287l-14.2363281,5.3695068
		c-1.8101196,0.6828003-4.5153809,0.2380371-6.0116577-0.9880371l-11.7680054-9.6447144
		c-1.4959717-1.2263184-2.4633789-3.7910767-2.1494751-5.7005005l2.4680176-15.0136719
		c0.1533813-0.934082,0.6494141-1.9180908,1.3265991-2.7600098c-1.706665,0.7833862-3.2858276,2.7822266-3.5837402,4.5932617
		l-2.4686279,15.0133667c-0.3132935,1.9091187,0.6538086,4.4741821,2.1503906,5.7005005l11.7679443,9.6444702
		c1.4960327,1.2260132,4.2012329,1.6708374,6.0111694,0.9882813l14.2362671-5.3695068
		c0.9243164-0.3485718,1.8283081-1.072876,2.5349731-1.951355
		C-777.0911255,555.7132568-777.1835327,555.7544556-777.2764893,555.7894287z"/>
</g>
</svg>
