<?xml version="1.0" encoding="utf-8"?>
<!-- Generator: Adobe Illustrator 19.0.1, SVG Export Plug-In . SVG Version: 6.00 Build 0)  -->
<svg version="1.1" id="Layer_1" xmlns="http://www.w3.org/2000/svg" xmlns:xlink="http://www.w3.org/1999/xlink" x="0px" y="0px"
	 viewBox="0 0 16.9981995 11.0037994" style="enable-background:new 0 0 16.9981995 11.0037994;" xml:space="preserve">
<style type="text/css">
	.st0{fill-rule:evenodd;clip-rule:evenodd;fill:#FF600B;}
</style>
<path class="st0" d="M0.8043,0.0788C0.9379,0.0306,1.0808001,0,1.2316999,0h14.5348005
	c0.1509991,0,0.2936993,0.0306,0.4274998,0.0788L9.6815004,5.9068999c-0.6630001,0.5942998-1.7017002,0.5942998-2.3649006,0
	L0.8043,0.0788z M16.8167,10.4370995c0.1128006-0.1766996,0.1814995-0.3823996,0.1814995-0.6049995V1.1725
	c0-0.1576-0.0338993-0.3082001-0.0931988-0.4451L10.8107996,6.1822L16.8167,10.4370995z M10.2595997,6.6686997
	c-0.5057993,0.4115-1.132,0.6203003-1.7605,0.6203003c-0.6283998,0-1.2549996-0.2081003-1.7606997-0.6203003l-5.9888,4.2410998
	c0.1484,0.0595999,0.3108,0.0939999,0.4821,0.0939999h14.5348005c0.1710997,0,0.3335991-0.0344,0.4820004-0.0939999
	L10.2595997,6.6686997z M0.0931,0.7274C0.0338,0.8643,0,1.0149,0,1.1725v8.6596003c0,0.2226,0.0687,0.4282999,0.1815,0.6049995
	L6.1873002,6.1822L0.0931,0.7274z"/>
</svg>
