<?xml version="1.0" encoding="utf-8"?>
<!-- Generator: Adobe Illustrator 19.0.1, SVG Export Plug-In . SVG Version: 6.00 Build 0)  -->
<svg version="1.1" id="Layer_1" xmlns="http://www.w3.org/2000/svg" xmlns:xlink="http://www.w3.org/1999/xlink" x="0px" y="0px"
	 viewBox="0 0 52.0000114 52.0012245" style="enable-background:new 0 0 52.0000114 52.0012245;" xml:space="preserve">
<style type="text/css">
	.st0{fill:#FFFFFF;}
</style>
<g>
	<g>
		<path class="st0" d="M34.5852776,0C19.9298191,8.3743286,14.6555281,26.2028809,0.0000102,34.5864258
			c5.8153687,5.8150635,11.5991821,11.598877,17.4146729,17.4147949
			c14.6555195-8.3728027,19.9298115-26.201416,34.5853271-34.5856323C46.1845207,11.5997314,40.4007072,5.8167114,34.5852776,0z
			 M32.1126823,32.112915c-3.3853779,3.3858643-8.8718891,3.3858643-12.2146626,0
			c-3.3853149-3.3853149-3.3853149-8.8707275,0-12.2145996c3.3851929-3.3853149,8.8717651-3.3853149,12.2146626,0
			C35.4873161,23.2728271,35.4873161,28.7276001,32.1126823,32.112915z M30.4784031,29.1621094
			c0.6578979-1.2191772,0.477478-2.77948-0.5625-3.8197021c-1.2628784-1.2626953-3.3109741-1.2626953-4.5739136,0
			c-0.5411987,0.5407715-1.4219971,0.5407715-1.9525757,0c-0.5306396-0.5415039-0.5413208-1.421814,0-1.9525757
			c0.276001-0.2754517,0.6366577-0.4138184,1.0186768-0.4031372c0.5095215,0.0107422,0.9338989-0.3808594,0.9550781-0.8902588
			c0.0106201-0.5109253-0.381958-0.9346313-0.8913574-0.9553223c-0.572998-0.0228882-1.135498,0.1148071-1.6343384,0.392395
			l-0.4562988-0.4573975c-0.3607788-0.3610229-0.944458-0.3610229-1.3052979,0c-0.3607788,0.3610229-0.3607788,0.9445801,0,1.305603
			l0.4564209,0.456604c-0.65802,1.2191772-0.4777222,2.7910156,0.5623779,3.8197021
			c1.2628174,1.2626953,3.3110962,1.2626953,4.5739136,0c0.5411987-0.5408325,1.4219971-0.5408325,1.9526367,0
			c0.5411987,0.5429688,0.5411987,1.4226074,0,1.954895c-0.2759399,0.2738037-0.6367188,0.411499-1.0187378,0.4008179
			c-0.5093994-0.0092163-0.9338989,0.3831787-0.9552002,0.8917847c-0.0105591,0.5093994,0.382019,0.9353638,0.8915405,0.9552612
			c0.572998,0.0214233,1.135376-0.1154785,1.6341553-0.3930664l0.4562988,0.456604
			c0.3609009,0.3601685,0.944519,0.3601685,1.3052979,0c0.3609009-0.3594971,0.3609009-0.9437866,0-1.3048096L30.4784031,29.1621094
			z"/>
	</g>
</g>
</svg>
