<?xml version="1.0" encoding="utf-8"?>
<!-- Generator: Adobe Illustrator 19.0.1, SVG Export Plug-In . SVG Version: 6.00 Build 0)  -->
<svg version="1.1" id="Layer_1" xmlns="http://www.w3.org/2000/svg" xmlns:xlink="http://www.w3.org/1999/xlink" x="0px" y="0px"
	 viewBox="0 0 18.0014381 18.0002651" style="enable-background:new 0 0 18.0014381 18.0002651;" xml:space="preserve">
<style type="text/css">
	.st0{fill-rule:evenodd;clip-rule:evenodd;fill:#FF600B;}
</style>
<path class="st0" d="M6.9039497,11.1302423c1.6146002,1.6054001,3.4835997,3.1405001,4.217,2.3985996
	c1.0504999-1.0600996,1.6970997-1.9824991,4.0285997-0.1208992c2.3309002,1.8646994,0.5506001,3.1205988-0.4667997,4.1470003
	c-1.1743002,1.1854992-5.5718994,0.0818996-9.9309006-4.2510004c-4.3586998-4.3367004-5.4923-8.7344999-4.3174996-9.9208002
	c1.0178-1.0264001,2.2563-2.8199999,4.1324997-0.4979c1.8773003,2.3212998,0.9614,2.9760001-0.0890999,4.0360994
	C3.7444499,7.6624427,5.2890496,9.5233421,6.9039497,11.1302423z M9.2450495,3.4680426c0,0-0.4869995-0.0773001-0.8280993,0.2653999
	c-0.3510008,0.3525999-0.3664007,0.9568002,0.0036993,1.3285c0.2184,0.2188001,0.5267,0.2646999,0.5267,0.2646999
	c0.6011,0.1139002,1.5065002,0.3035998,2.4706001,1.2704c0.9635,0.9651999,1.1542006,1.8737998,1.2666998,2.4749999
	c0,0,0.0467005,0.309,0.2655001,0.5277996c0.3696003,0.3709002,0.9745007,0.3556004,1.3255005,0.0038004
	c0.3407001-0.3418999,0.2649994-0.8298998,0.2649994-0.8298998c-0.1908998-1.2207003-0.7809-2.4934001-1.7936993-3.5091
	C11.7334499,4.2512426,10.4621496,3.6592426,9.2450495,3.4680426z M13.8136501,4.1954427
	c1.7666998,1.7697997,2.5198002,3.7797999,2.2747002,5.4058995c0,0-0.0855999,0.5178003,0.2503986,0.8543005
	c0.3784008,0.3786001,0.9778004,0.3556995,1.3318005,0.0022993c0.2273998-0.2286997,0.2772007-0.5995998,0.2772007-0.5995998
	c0.2024002-1.4066-0.0524998-4.2372994-2.8050003-6.9929996c-2.7523003-2.7588-5.5764999-3.0142999-6.9802999-2.8116
	c0,0-0.3699999,0.0505-0.5977001,0.2776c-0.3540001,0.3542-0.3754997,0.9546,0.0026002,1.3355
	c0.3361001,0.3357,0.8504996,0.2493,0.8504996,0.2493C10.0426502,1.6706426,12.0474501,2.4255426,13.8136501,4.1954427z"/>
</svg>
