<?xml version="1.0" encoding="utf-8"?>
<!-- Generator: Adobe Illustrator 19.0.1, SVG Export Plug-In . SVG Version: 6.00 Build 0)  -->
<svg version="1.1" id="Layer_1" xmlns="http://www.w3.org/2000/svg" xmlns:xlink="http://www.w3.org/1999/xlink" x="0px" y="0px"
	 viewBox="0 0 17.5874233 17.1759186" style="enable-background:new 0 0 17.5874233 17.1759186;" xml:space="preserve">
<style type="text/css">
	.st0{fill:#FFFFFF;}
</style>
<path class="st0" d="M6.7452164,10.6194839c1.5774002,1.5335007,3.4034996,2.9966002,4.1199999,2.2899008
	c1.0263004-1.0119009,1.658-1.8914003,3.9358006-0.1139002c2.2774,1.7775002,0.5380993,2.9744997-0.4560003,3.9557991
	c-1.1471996,1.1303997-5.4438,0.078701-9.7024002-4.0582991c-4.2584996-4.1371002-5.3660998-8.3338003-4.2181997-9.4642
	c0.9944-0.9806001,2.2045002-2.6914999,4.0373001-0.4758c1.8341999,2.2149999,0.9393997,2.8391001-0.0869002,3.8510001
	C3.6584165,7.3114843,5.1675162,9.0851841,6.7452164,10.6194839z M9.0325165,3.3097844c0,0-0.4757004-0.0742002-0.8091002,0.2523999
	c-0.3429999,0.3357999-0.3579998,0.9133,0.0036001,1.2680998c0.2133999,0.2081003,0.5146999,0.2532001,0.5146999,0.2532001
	c0.5872002,0.1079001,1.4716997,0.2899003,2.4136,1.2115002c0.9414005,0.9224,1.1278,1.7858996,1.2377005,2.3610997
	c0,0,0.0457001,0.2960005,0.2593994,0.5047998c0.3611002,0.3534002,0.9520006,0.3396006,1.2950001,0.0031004
	c0.3329-0.3259001,0.2588997-0.7909002,0.2588997-0.7909002c-0.1864996-1.1640997-0.7629995-2.3808999-1.7524996-3.3491998
	C11.4637165,4.0547843,10.2216167,3.4925842,9.0325165,3.3097844z M13.4959164,4.0034842
	c1.7261,1.6896,2.4617996,3.6055002,2.2224998,5.1605c0,0-0.0837002,0.4918003,0.2447004,0.8121996
	c0.3695002,0.3610001,0.9551992,0.3412008,1.3009996,0.0031004c0.2222004-0.2172003,0.2707996-0.5720997,0.2707996-0.5720997
	c0.1979008-1.3423004-0.0513-4.0438004-2.7402992-6.6748004c-2.6891003-2.6302998-5.4484005-2.8750999-6.8200002-2.6808
	c0,0-0.3614001,0.0474-0.5840001,0.2646c-0.3456001,0.3381-0.3666,0.9117,0.0028,1.2735
	c0.3283,0.3205,0.8308001,0.2394,0.8308001,0.2394C9.8116169,1.5934843,11.7703161,2.3147843,13.4959164,4.0034842z"/>
</svg>
