<?xml version="1.0" encoding="utf-8"?>
<!-- Generator: Adobe Illustrator 19.0.1, SVG Export Plug-In . SVG Version: 6.00 Build 0)  -->
<svg version="1.1" id="Layer_1" xmlns="http://www.w3.org/2000/svg" xmlns:xlink="http://www.w3.org/1999/xlink" x="0px" y="0px"
	 viewBox="0 0 15.0024004 22.9935989" style="enable-background:new 0 0 15.0024004 22.9935989;" xml:space="preserve">
<style type="text/css">
	.st0{fill:#FF600B;}
</style>
<path class="st0" d="M15.0024004,7.1956997c0,2.7917004-2.2226,5.5160999-3.6811008,7.5682001
	c-3.1254997,4.3373995-3.5769997,8.0025988-3.5769997,8.0025988c-0.0695,0.3028011-0.3473001,0.3028011-0.4168,0
	c0,0-0.5903997-3.6651993-3.6464-8.0025988C1.146,11.3334999,0,9.9874001,0,7.1956997C0,3.194,3.2992001,0,7.4664001,0
	C11.599,0,15.0024004,3.194,15.0024004,7.1956997z M7.5359001,10.1892996c1.6322002,0,2.8823996-1.3125,2.8823996-2.8589997
	c0-1.5457001-1.2501993-2.7564998-2.8823996-2.7564998c-1.5279999,0-2.8130002,1.2107997-2.8130002,2.7564998
	C4.7228999,8.8767996,6.0079002,10.1892996,7.5359001,10.1892996z"/>
</svg>
