<?xml version="1.0" encoding="utf-8"?>
<!-- Generator: Adobe Illustrator 19.0.1, SVG Export Plug-In . SVG Version: 6.00 Build 0)  -->
<svg version="1.1" id="Layer_1" xmlns="http://www.w3.org/2000/svg" xmlns:xlink="http://www.w3.org/1999/xlink" x="0px" y="0px"
	 viewBox="0 0 19.4152184 19.4154396" style="enable-background:new 0 0 19.4152184 19.4154396;" xml:space="preserve">
<style type="text/css">
	.st0{fill:#FF600B;}
</style>
<path class="st0" d="M18.6047745,11.1133547c0.072464-0.4584208,0.1106033-0.9273682,0.1106033-1.4061098
	c0-4.9750767-4.0328875-9.0078144-9.0080919-9.0078144c-0.4773827,0-0.9476891,0.0392839-1.4056997,0.1109053
	C7.4719648,0.2970562,6.4927583,0,5.443419,0C2.4370468,0,0,2.4368103,0,5.443399
	c0,1.0491242,0.2972503,2.0274682,0.8103355,2.8587937c-0.0709958,0.4591541-0.110064,0.9266348-0.110064,1.4052687
	c0,4.9752703,4.0327582,9.0068655,9.0067978,9.0068655c0.4778147,0,0.9482498-0.0366516,1.4062386-0.1091366
	c0.8304634,0.512352,1.8088284,0.8102493,2.8579521,0.8102493c3.0071278,0,5.4439583-2.4374352,5.4439583-5.4439383
	C19.4154339,12.922183,19.1183777,11.9438171,18.6047745,11.1133547z M13.9841175,13.8040543
	c-0.3811035,0.5485506-0.9408503,0.9772654-1.6722946,1.2854958c-0.732933,0.3090506-1.599206,0.4628429-2.599576,0.4628429
	c-1.1990318,0-2.1917219-0.2096224-2.975307-0.6335049c-0.5554323-0.3033552-1.0072298-0.7103672-1.354507-1.217865
	c-0.3480325-0.5079298-0.5244756-1.0050945-0.5244756-1.4900703c0-0.2860975,0.1091361-0.5351114,0.3214979-0.7377653
	c0.2145619-0.2043581,0.4909515-0.3067427,0.817174-0.3067427c0.2672429,0,0.4967766,0.0804882,0.683639,0.2397375
	c0.185482,0.1597033,0.3410645,0.391221,0.4683218,0.6971226c0.1525192,0.3545475,0.3182192,0.6507626,0.4944463,0.886919
	c0.1751704,0.2334166,0.4217677,0.4283037,0.7410226,0.5808229c0.3158026,0.1529512,0.7360821,0.2294044,1.2620249,0.2294044
	c0.7197733,0,1.3014164-0.1556683,1.7465696-0.462821c0.4474602-0.3096981,0.6623459-0.6867886,0.6623459-1.1426849
	c0-0.3631983-0.1158667-0.6520348-0.3534899-0.877017c-0.2397594-0.2277431-0.5494356-0.4015541-0.9337101-0.5226851
	c-0.3857193-0.1221876-0.9036589-0.2519693-1.5527382-0.3888912c-0.8715591-0.1900339-1.6004791-0.4116507-2.190773-0.6657124
	c-0.5910273-0.2553349-1.0617867-0.604187-1.4106607-1.0449171c-0.349607-0.4450455-0.5239363-0.9981694-0.5239363-1.6533542
	c0-0.6247458,0.1840367-1.1834145,0.5524988-1.6696415c0.3682461-0.487608,0.9010272-0.860816,1.5957112-1.1207671
	c0.6922679-0.259865,1.5072637-0.3898621,2.4409518-0.3898621c0.7466097,0,1.392539,0.0863771,1.9392128,0.2582898
	c0.545229,0.1731644,0.9996367,0.4016409,1.3630505,0.688364c0.361084,0.286097,0.6267519,0.5878778,0.795083,0.9045219
	c0.1680946,0.3175721,0.2527895,0.6277661,0.2527895,0.9305172c0,0.2814593-0.1091146,0.5366859-0.3216925,0.7604165
	c-0.2125559,0.2240329-0.4845448,0.3382173-0.8020296,0.3371816c-0.2862921,0-0.5108633-0.0660558-0.6665535-0.2058253
	c-0.1516781-0.1352606-0.3109493-0.3505564-0.4832716-0.6506758c-0.2178411-0.418705-0.4786558-0.7449274-0.782011-0.9782147
	c-0.295373-0.2290158-0.7826576-0.3482485-1.4606876-0.3467598c-0.6273775,0-1.1293097,0.1281853-1.5081911,0.37886
	C7.6233406,6.1934819,7.4410944,6.4890499,7.4402533,6.8352919C7.4409003,7.0522699,7.5032454,7.23525,7.6288199,7.3916736
	c0.1274519,0.1578908,0.3048224,0.2947264,0.5327811,0.4100542C8.3896465,7.9188676,8.6215963,8.0094509,8.8547106,8.074666
	c0.2358332,0.0668755,0.627162,0.1634779,1.1711178,0.2914686c0.6821499,0.1470394,1.3008986,0.3112507,1.8568487,0.4903259
	c0.5549145,0.1799164,1.0285006,0.3968945,1.4197216,0.6554003c0.3943701,0.2578592,0.7025795,0.5862818,0.922513,0.9831762
	c0.2216377,0.397542,0.3320255,0.883338,0.3320255,1.4544754C14.5577784,12.6377687,14.3660622,13.2563009,13.9841175,13.8040543z"
	/>
</svg>
